<?xml version="1.0" encoding="utf-8"?>
<!-- Generator: Adobe Illustrator 28.2.0, SVG Export Plug-In . SVG Version: 6.00 Build 0)  -->
<svg version="1.1" xmlns="http://www.w3.org/2000/svg" xmlns:xlink="http://www.w3.org/1999/xlink" x="0px" y="0px"
	 viewBox="0 0 1920 1080" style="enable-background:new 0 0 1920 1080;" xml:space="preserve">
<style type="text/css">
	.st0{fill-rule:evenodd;clip-rule:evenodd;}
	.st1{opacity:0.35;fill-rule:evenodd;clip-rule:evenodd;fill:url(#SVGID_1_);}
	.st2{fill:url(#SVGID_00000168089053220081231030000008626394834597443993_);}
	.st3{fill:url(#SVGID_00000072243732653700847050000015027789669758032829_);}
</style>
<g id="background">
</g>
<g id="brandmark">
	<path class="st0" d="M430.2,623.2l-53.6-53.6c-5.2-5.2-13.3-5.8-19.2-1.3c-13.9,10.6-31.3,16.9-50.2,16.9
		c-18.9,0-36.2-6.3-50.2-16.9c-5.9-4.5-14-3.9-19.2,1.3l-53.6,53.6c-5.7,5.7-5.7,15,0,20.7l12.5,12.5c5.4,5.4,13.9,5.8,19.7,0.9
		c52.5-43.6,129-43.6,181.5,0c5.8,4.8,14.3,4.5,19.7-0.9l12.5-12.5C435.9,638.2,435.9,628.9,430.2,623.2z"/>
	<linearGradient id="SVGID_1_" gradientUnits="userSpaceOnUse" x1="307.2209" y1="660.7169" x2="307.2209" y2="578.5045">
		<stop  offset="0.1" style="stop-color:#FFFFFF;stop-opacity:0"/>
		<stop  offset="1" style="stop-color:#FFFFFF"/>
	</linearGradient>
	<path class="st1" d="M407.3,660.7c-1.9,0-3.7-0.6-5.1-1.9c-26.6-22.1-60.3-34.2-95-34.2s-68.4,12.2-95,34.2
		c-1.5,1.2-3.3,1.9-5.1,1.9c-2.1,0-4.2-0.8-5.7-2.4l-12.5-12.5c-1.5-1.5-2.3-3.5-2.3-5.7c0-2.2,0.8-4.2,2.3-5.7l53.6-53.6
		c1.5-1.5,3.6-2.4,5.7-2.4c1.8,0,3.4,0.6,4.9,1.7c15.7,11.9,34.4,18.2,54.2,18.2s38.5-6.3,54.2-18.2c1.4-1.1,3.1-1.7,4.9-1.7
		c2.1,0,4.1,0.8,5.7,2.4l53.6,53.6c1.5,1.5,2.3,3.5,2.3,5.7c0,2.2-0.8,4.2-2.3,5.7L413,658.4C411.5,659.9,409.5,660.7,407.3,660.7
		L407.3,660.7z"/>
	
		<linearGradient id="SVGID_00000124143593014049909930000006743126427277424001_" gradientUnits="userSpaceOnUse" x1="307.2231" y1="552.5273" x2="307.2231" y2="419.2831">
		<stop  offset="3.061965e-07" style="stop-color:#FFE500"/>
		<stop  offset="1" style="stop-color:#FF0000"/>
	</linearGradient>
	<path style="fill:url(#SVGID_00000124143593014049909930000006743126427277424001_);" d="M390.2,502.3c0,15.9-4.5,30.7-12.2,43.3
		c-2.4,4-6.2,6.3-10.8,6.9c-4.6,0.5-8.8-0.9-12.1-4.2l-37.6-37.6c-5.7-5.7-15-5.7-20.7,0l-37.6,37.6c-3.3,3.3-7.5,4.7-12.1,4.2
		c-4.6-0.5-8.3-2.9-10.8-6.9c-7.7-12.6-12.2-27.4-12.2-43.3c0-45.8,37.1-83,83-83S390.2,456.4,390.2,502.3z"/>
	
		<linearGradient id="SVGID_00000007400085409011686770000011405069182170324392_" gradientUnits="userSpaceOnUse" x1="307.2232" y1="537.69" x2="307.2232" y2="420.536">
		<stop  offset="0.1365" style="stop-color:#FFE500"/>
		<stop  offset="1" style="stop-color:#FF0000"/>
	</linearGradient>
	<path style="fill:url(#SVGID_00000007400085409011686770000011405069182170324392_);" d="M364,537.7c-2.1,0-3.8-0.8-5.4-2.3
		l-36.7-36.7c-3.9-3.9-9.1-6.1-14.7-6.1c-5.5,0-10.7,2.2-14.6,6.1l-36.7,36.7c-1.5,1.5-3.3,2.3-5.4,2.3c-3.6-0.4-5.5-1.6-6.9-3.8
		c-7.2-11.7-10.9-25.1-10.9-38.9c0-41.1,33.4-74.5,74.5-74.5s74.5,33.4,74.5,74.5c0,13.8-3.8,27.2-10.9,38.9
		c-1.3,2.2-3.2,3.4-5.8,3.7L364,537.7z"/>
</g>
<g id="wordmark">
	<path d="M563.3,495.7c-33.9,0-57.3,23.8-57.3,58.9c0,34.8,23.1,58.4,57.3,58.4c34.4,0,57.8-23.6,57.8-58.4
		C621,519.5,597.7,495.7,563.3,495.7z M563.3,592.7c-20,0-31.9-14.4-31.9-38.2c0-24.1,11.9-38.7,31.9-38.7
		c20.2,0,32.4,14.6,32.4,38.7C595.7,578.3,583.3,592.7,563.3,592.7z M698.9,495.7c-15.5,0-28.1,6.7-36.2,18.9h-0.9v-15.3
		c0-1.3-0.9-2.2-2.2-2.2h-19.3c-1.3,0-2.2,0.9-2.2,2.2v110.1c0,1.4,0.9,2.3,2.2,2.3h20.4c1.4,0,2.3-0.9,2.3-2.3v-62
		c0-20.9,8.1-30.6,25.8-30.6c17.7,0,25.6,9.4,25.6,30.6v62c0,1.4,0.9,2.3,2.2,2.3h20.5c1.3,0,2.2-0.9,2.2-2.3v-62
		C739.3,513.4,724.9,495.7,698.9,495.7z M811.9,495.7c-35.3,0-58,22.9-58,58.9c0,35.5,22.7,58.4,58,58.4c29.4,0,48.1-14.6,52.1-35.5
		c0.2-1.1-0.7-1.8-2.2-1.8h-19.8c-1.3,0-2,0.5-2.5,1.8c-3.1,9.4-12.4,15.3-27.6,15.3c-19.3,0-30.6-11.2-32.4-30.1h82.9
		c1.4,0,2.3-0.9,2.3-2.3v-6.1C864.7,518.1,844.5,495.7,811.9,495.7z M779.8,544.4c2.3-18.6,13.3-28.5,32.1-28.5
		c16.4,0,27.2,10.8,28.3,28.5H779.8z M945,497h-31.9c-21.1,0-32.6,11.5-32.6,32.6v79.8c0,1.4,0.9,2.3,2.2,2.3h20.5
		c1.3,0,2.2-0.9,2.2-2.3v-91.2H945c1.4,0,2.3-0.9,2.3-2.3v-16.6C947.3,497.9,946.4,497,945,497z M1011.4,495.7
		c-33.9,0-57.3,23.8-57.3,58.9c0,34.8,23.1,58.4,57.3,58.4c34.4,0,57.8-23.6,57.8-58.4C1069.1,519.5,1045.7,495.7,1011.4,495.7z
		 M1011.4,592.7c-20,0-31.9-14.4-31.9-38.2c0-24.1,11.9-38.7,31.9-38.7c20.2,0,32.4,14.6,32.4,38.7
		C1043.7,578.3,1031.4,592.7,1011.4,592.7z M1187.1,571.2h-19.8c-1.3,0-2.2,0.7-2.5,2c-3.6,13.9-12.4,19.5-27.9,19.5
		c-20.2,0-32.4-14.1-32.4-38.2c0-23.8,11.9-38.7,32.4-38.7c14.6,0,23.8,6.1,26.7,19.3c0.4,1.6,0.9,2.3,2.5,2.3h19.8
		c1.3,0,2.5-0.9,2.3-2.5c-3.4-23.6-23.1-39.3-51.2-39.3c-34.4,0-57.7,23.8-57.7,58.9c0,35.5,22.7,58.4,57.7,58.4
		c29.2,0,48.5-16,52.4-39.8C1189.6,571.8,1188.5,571.2,1187.1,571.2z M1264.1,544.9V544l41.3-44.3c1.3-1.6,0.4-2.7-1.4-2.7h-22.2
		c-1.1,0-2,0.4-2.7,1.1l-47,48.5h-0.9v-94.6c0-1.3-0.9-2.3-2.3-2.3h-20.4c-1.3,0-2.2,0.9-2.2,2.3v157.3c0,1.4,0.9,2.3,2.2,2.3h20.4
		c1.4,0,2.3-0.9,2.3-2.3v-33l15.3-16h0.9l34.2,49.9c0.7,1.1,1.8,1.4,2.7,1.4h22.5c1.8,0,2.5-1.4,1.6-2.7L1264.1,544.9z
		 M1369.5,495.7c-35.3,0-58,22.9-58,58.9c0,35.5,22.7,58.4,58,58.4c29.4,0,48.1-14.6,52.1-35.5c0.2-1.1-0.7-1.8-2.2-1.8h-19.8
		c-1.4,0-2,0.5-2.5,1.8c-3.1,9.4-12.4,15.3-27.6,15.3c-19.3,0-30.6-11.2-32.3-30.1h82.9c1.4,0,2.3-0.9,2.3-2.3v-6.1
		C1422.3,518.1,1402.1,495.7,1369.5,495.7z M1337.4,544.4c2.3-18.6,13.3-28.5,32.1-28.5c16.4,0,27.2,10.8,28.3,28.5H1337.4z
		 M1504.6,497H1477v-31.5c0-1.4-0.9-2.3-2.3-2.3h-20.5c-1.3,0-2.2,0.9-2.2,2.3V497h-19.6c-1.4,0-2.3,0.9-2.3,2.2v15.3
		c0,1.3,0.9,2.2,2.3,2.2h19.6V579c0,21.1,11.5,32.6,32.6,32.6h20c1.4,0,2.3-0.9,2.3-2.3v-15.3c0-1.4-0.9-2.3-2.3-2.3H1477v-75.1
		h27.6c1.4,0,2.3-0.9,2.3-2.2v-15.3C1506.8,497.9,1505.9,497,1504.6,497z M1553.6,579H1526c-1.3,0-2.2,0.9-2.2,2.3v28.1
		c0,1.4,0.9,2.3,2.2,2.3h27.6c1.4,0,2.3-0.9,2.3-2.3v-28.1C1555.9,579.9,1555,579,1553.6,579z M1697.2,591.8h-12.3v-92.6
		c0-1.3-0.9-2.2-2.3-2.2h-20.5c-1.3,0-2.2,0.9-2.2,2.2v15.3h-0.9c-7.9-11.7-21.8-18.9-36.6-18.9c-31,0-50.8,23.1-50.8,58.9
		c0,35.5,19.8,58.4,50.8,58.4c15.5,0,30.1-7.2,37.7-18.7h0.9v0.9c0,11,6.3,16.4,19.6,16.4h16.6c1.4,0,2.3-0.9,2.3-2.3v-15.3
		C1699.5,592.7,1698.6,591.8,1697.2,591.8z M1629.4,592.7c-20,0-32.3-14.4-32.3-38.2c0-24.1,12.3-38.7,32.3-38.7
		c19.6,0,31.5,14.6,31.5,38.7C1660.8,578.3,1649.1,592.7,1629.4,592.7z M1737.8,448.5h-24.3c-1.4,0-2.3,0.9-2.3,2.3V475
		c0,1.4,0.9,2.3,2.3,2.3h24.3c1.4,0,2.3-0.9,2.3-2.3v-24.3C1740,449.4,1739.1,448.5,1737.8,448.5z M1735.7,497h-20.4
		c-1.4,0-2.3,0.9-2.3,2.2v110.1c0,1.4,0.9,2.3,2.3,2.3h20.4c1.4,0,2.3-0.9,2.3-2.3V499.2C1738,497.9,1737.1,497,1735.7,497z"/>
</g>
</svg>
